<svg width="24.000000" height="24.000000" viewBox="0 0 24 24" fill="none" xmlns="http://www.w3.org/2000/svg" xmlns:xlink="http://www.w3.org/1999/xlink">
	<desc>
			Created with Pixso.
	</desc>
	<defs>
		<clipPath id="clip11_3872">
			<rect id="drawing" rx="0.000000" width="23.000000" height="23.000000" transform="translate(0.500000 0.500000)" fill="white" fill-opacity="0"/>
		</clipPath>
	</defs>
	<rect id="drawing" rx="0.000000" width="23.000000" height="23.000000" transform="translate(0.500000 0.500000)" fill="#FFFFFF" fill-opacity="0"/>
	<g clip-path="url(#clip11_3872)">
		<path id="Vector" d="M20.59 1.5C20.22 1.5 19.85 1.61 19.54 1.81L14.46 5.2C13.18 6.05 12.02 7.05 10.99 8.19C13.1 9.18 14.81 10.89 15.8 13C16.94 11.97 17.94 10.81 18.79 9.53L22.18 4.45C22.37 4.16 22.48 3.83 22.49 3.49C22.51 3.14 22.43 2.8 22.27 2.5C22.11 2.2 21.87 1.94 21.57 1.77C21.28 1.59 20.94 1.5 20.59 1.5ZM12.29 15.52C12.95 15.16 13.58 14.75 14.19 14.31C13.79 13.29 13.18 12.36 12.4 11.59C11.63 10.81 10.7 10.2 9.68 9.8C9.24 10.41 8.83 11.04 8.47 11.7L8.19 12.2C9.05 12.44 9.83 12.9 10.46 13.53C11.09 14.16 11.55 14.94 11.79 15.8L12.29 15.52L12.29 15.52ZM6.74 13.5C5.75 13.5 4.8 13.89 4.09 14.59C3.39 15.3 2.99 16.25 2.99 17.25C3 17.45 2.95 17.65 2.87 17.84C2.79 18.03 2.67 18.2 2.52 18.34C2.37 18.48 2.19 18.59 2 18.66C1.8 18.73 1.6 18.76 1.39 18.74C1.26 18.73 1.12 18.76 1 18.82C0.88 18.88 0.78 18.98 0.71 19.09C0.64 19.21 0.6 19.34 0.59 19.48C0.59 19.61 0.63 19.75 0.69 19.87C1.27 20.87 2.16 21.65 3.23 22.09C4.3 22.54 5.48 22.62 6.6 22.32C7.72 22.02 8.7 21.36 9.41 20.44C10.11 19.53 10.49 18.4 10.49 17.25C10.49 16.75 10.4 16.27 10.21 15.81C10.02 15.35 9.74 14.94 9.4 14.59C9.05 14.25 8.63 13.97 8.18 13.78C7.72 13.59 7.24 13.5 6.74 13.5L6.74 13.5Z" fill="#000000" fill-opacity="1.000000" fill-rule="evenodd"/>
	</g>
</svg>
