<svg width="24.000000" height="24.000000" viewBox="0 0 24 24" fill="none" xmlns="http://www.w3.org/2000/svg" xmlns:xlink="http://www.w3.org/1999/xlink">
	<desc>
			Created with Pixso.
	</desc>
	<defs>
		<clipPath id="clip18_3621">
			<rect id="Error" rx="0.000000" width="23.000000" height="23.000000" transform="translate(0.500000 0.500000)" fill="white" fill-opacity="0"/>
		</clipPath>
	</defs>
	<rect id="Error" rx="0.000000" width="23.000000" height="23.000000" transform="translate(0.500000 0.500000)" fill="#FFFFFF" fill-opacity="0"/>
	<g clip-path="url(#clip18_3621)">
		<path id="Vector" d="M21.59 12C21.59 14.54 20.58 16.98 18.78 18.78C16.98 20.58 14.54 21.6 11.99 21.6C9.45 21.6 7.01 20.58 5.21 18.78C3.41 16.98 2.39 14.54 2.39 12C2.39 9.45 3.41 7.01 5.21 5.21C7.01 3.41 9.45 2.39 11.99 2.39C14.54 2.39 16.98 3.41 18.78 5.21C20.58 7.01 21.59 9.45 21.59 12ZM13.19 16.79C13.19 17.11 13.07 17.42 12.84 17.64C12.62 17.87 12.31 18 11.99 18C11.68 18 11.37 17.87 11.15 17.64C10.92 17.42 10.79 17.11 10.79 16.79C10.79 16.48 10.92 16.17 11.15 15.95C11.37 15.72 11.68 15.6 11.99 15.6C12.31 15.6 12.62 15.72 12.84 15.95C13.07 16.17 13.19 16.48 13.19 16.79ZM11.99 6C11.68 6 11.37 6.12 11.15 6.35C10.92 6.57 10.79 6.88 10.79 7.19L10.79 12C10.79 12.31 10.92 12.62 11.15 12.84C11.37 13.07 11.68 13.19 11.99 13.19C12.31 13.19 12.62 13.07 12.84 12.84C13.07 12.62 13.19 12.31 13.19 12L13.19 7.19C13.19 6.88 13.07 6.57 12.84 6.35C12.62 6.12 12.31 6 11.99 6Z" fill="#E02424" fill-opacity="1.000000" fill-rule="evenodd"/>
		<path id="Vector" d="M21.59 12C21.59 14.54 20.58 16.98 18.78 18.78C16.98 20.58 14.54 21.6 11.99 21.6C9.45 21.6 7.01 20.58 5.21 18.78C3.41 16.98 2.39 14.54 2.39 12C2.39 9.45 3.41 7.01 5.21 5.21C7.01 3.41 9.45 2.39 11.99 2.39C14.54 2.39 16.98 3.41 18.78 5.21C20.58 7.01 21.59 9.45 21.59 12ZM19.15 16.77Q18.68 17.47 18.08 18.08Q17.47 18.68 16.77 19.15Q16.08 19.61 15.29 19.94Q14.5 20.27 13.67 20.43Q12.85 20.6 11.99 20.6Q11.14 20.6 10.32 20.43Q9.49 20.27 8.7 19.94Q7.91 19.61 7.22 19.15Q6.52 18.68 5.91 18.08Q5.31 17.47 4.84 16.77Q4.38 16.08 4.05 15.29Q3.72 14.5 3.56 13.67Q3.39 12.85 3.39 12Q3.39 11.14 3.56 10.32Q3.72 9.49 4.05 8.7Q4.38 7.91 4.84 7.22Q5.31 6.52 5.91 5.91Q6.52 5.31 7.22 4.84Q7.91 4.38 8.7 4.05Q9.49 3.72 10.32 3.56Q11.14 3.39 11.99 3.39Q12.85 3.39 13.67 3.56Q14.5 3.72 15.29 4.05Q16.08 4.38 16.77 4.84Q17.47 5.31 18.08 5.91Q18.68 6.52 19.15 7.22Q19.61 7.91 19.94 8.7Q20.27 9.49 20.43 10.32Q20.59 11.14 20.59 12Q20.59 12.85 20.43 13.67Q20.27 14.5 19.94 15.29Q19.61 16.08 19.15 16.77ZM10.77 5.37Q10.59 5.48 10.44 5.64Q10.28 5.79 10.17 5.97Q10.05 6.15 9.96 6.35Q9.88 6.56 9.84 6.77Q9.79 6.98 9.79 7.19L9.79 12Q9.79 12.21 9.84 12.42Q9.88 12.63 9.96 12.84Q10.05 13.04 10.17 13.22Q10.28 13.4 10.44 13.55Q10.59 13.71 10.77 13.82Q10.95 13.94 11.15 14.03Q11.36 14.11 11.57 14.15Q11.78 14.19 11.99 14.19Q12.21 14.19 12.42 14.15Q12.63 14.11 12.84 14.03Q13.04 13.94 13.22 13.82Q13.4 13.71 13.55 13.55Q13.71 13.4 13.82 13.22Q13.94 13.04 14.03 12.84Q14.11 12.63 14.15 12.42Q14.19 12.21 14.19 12L14.19 7.19Q14.19 6.98 14.15 6.77Q14.11 6.56 14.03 6.35Q13.94 6.15 13.82 5.97Q13.71 5.79 13.55 5.64Q13.4 5.48 13.22 5.37Q13.04 5.25 12.84 5.16Q12.63 5.08 12.42 5.04Q12.21 5 11.99 5Q11.78 5 11.57 5.04Q11.36 5.08 11.15 5.16Q10.95 5.25 10.77 5.37ZM11.99 6C11.68 6 11.37 6.12 11.15 6.35C10.92 6.57 10.79 6.88 10.79 7.19L10.79 12C10.79 12.31 10.92 12.62 11.15 12.84C11.37 13.07 11.68 13.19 11.99 13.19C12.31 13.19 12.62 13.07 12.84 12.84C13.07 12.62 13.19 12.31 13.19 12L13.19 7.19C13.19 6.88 13.07 6.57 12.84 6.35C12.62 6.12 12.31 6 11.99 6ZM13.22 18.62Q13.4 18.51 13.55 18.35Q13.71 18.2 13.82 18.02Q13.94 17.84 14.03 17.64Q14.11 17.43 14.15 17.22Q14.19 17.01 14.19 16.79Q14.19 16.58 14.15 16.37Q14.11 16.16 14.03 15.95Q13.94 15.75 13.82 15.57Q13.71 15.39 13.55 15.24Q13.4 15.08 13.22 14.97Q13.04 14.85 12.84 14.76Q12.63 14.68 12.42 14.64Q12.21 14.6 11.99 14.6Q11.78 14.6 11.57 14.64Q11.36 14.68 11.15 14.76Q10.95 14.85 10.77 14.97Q10.59 15.08 10.44 15.24Q10.28 15.39 10.17 15.57Q10.05 15.75 9.96 15.95Q9.88 16.16 9.84 16.37Q9.79 16.58 9.79 16.79Q9.79 17.01 9.84 17.22Q9.88 17.43 9.96 17.64Q10.05 17.84 10.17 18.02Q10.28 18.2 10.44 18.35Q10.59 18.51 10.77 18.62Q10.95 18.74 11.15 18.83Q11.36 18.91 11.57 18.95Q11.78 19 11.99 19Q12.21 19 12.42 18.95Q12.63 18.91 12.84 18.83Q13.04 18.74 13.22 18.62ZM13.19 16.79C13.19 17.11 13.07 17.42 12.84 17.64C12.62 17.87 12.31 18 11.99 18C11.68 18 11.37 17.87 11.15 17.64C10.92 17.42 10.79 17.11 10.79 16.79C10.79 16.48 10.92 16.17 11.15 15.95C11.37 15.72 11.68 15.6 11.99 15.6C12.31 15.6 12.62 15.72 12.84 15.95C13.07 16.17 13.19 16.48 13.19 16.79Z" fill="#E02424" fill-opacity="1.000000" fill-rule="evenodd"/>
	</g>
</svg>
