<svg width="24.000000" height="24.000000" viewBox="0 0 24 24" fill="none" xmlns="http://www.w3.org/2000/svg" xmlns:xlink="http://www.w3.org/1999/xlink">
	<desc>
			Created with Pixso.
	</desc>
	<defs>
		<clipPath id="clip11_3894">
			<rect id="Photo" rx="0.000000" width="23.000000" height="23.000000" transform="translate(0.500000 0.500000)" fill="white" fill-opacity="0"/>
		</clipPath>
	</defs>
	<rect id="Photo" rx="0.000000" width="23.000000" height="23.000000" transform="translate(0.500000 0.500000)" fill="#FFFFFF" fill-opacity="0"/>
	<g clip-path="url(#clip11_3894)">
		<path id="Vector" d="M1.5 6C1.5 5.4 1.73 4.83 2.15 4.4C2.58 3.98 3.15 3.75 3.75 3.75L20.25 3.75C20.84 3.75 21.41 3.98 21.84 4.4C22.26 4.83 22.5 5.4 22.5 6L22.5 18C22.5 18.59 22.26 19.16 21.84 19.59C21.41 20.01 20.84 20.25 20.25 20.25L3.75 20.25C3.15 20.25 2.58 20.01 2.15 19.59C1.73 19.16 1.5 18.59 1.5 18L1.5 6ZM3 16.06L3 18C3 18.41 3.33 18.75 3.75 18.75L20.25 18.75C20.44 18.75 20.63 18.67 20.78 18.53C20.92 18.38 21 18.19 21 18L21 16.06L18.31 13.37C18.02 13.09 17.64 12.93 17.25 12.93C16.85 12.93 16.47 13.09 16.19 13.37L15.31 14.25L16.28 15.22C16.35 15.28 16.41 15.37 16.45 15.46C16.49 15.55 16.51 15.65 16.51 15.75C16.52 15.85 16.5 15.95 16.46 16.04C16.42 16.14 16.37 16.22 16.29 16.29C16.22 16.37 16.14 16.42 16.04 16.46C15.95 16.5 15.85 16.52 15.75 16.51C15.65 16.51 15.55 16.49 15.46 16.45C15.37 16.41 15.28 16.35 15.22 16.27L10.06 11.12C9.77 10.84 9.39 10.68 9 10.68C8.6 10.68 8.22 10.84 7.94 11.12L3 16.06L3 16.06ZM13.12 8.25C13.12 7.95 13.24 7.66 13.45 7.45C13.66 7.24 13.95 7.12 14.25 7.12C14.54 7.12 14.83 7.24 15.04 7.45C15.25 7.66 15.37 7.95 15.37 8.25C15.37 8.54 15.25 8.83 15.04 9.04C14.83 9.25 14.54 9.37 14.25 9.37C13.95 9.37 13.66 9.25 13.45 9.04C13.24 8.83 13.12 8.54 13.12 8.25Z" fill="#000000" fill-opacity="1.000000" fill-rule="evenodd"/>
	</g>
</svg>
